{"scene":0,"scenes":[{"nodes":[0],"extras":{"brand":"Seu Jeito Singelo","product":"Calça","model":"alfaiataria","note":"Volumetric procedural mesh with fabric texture, folds and garment details."}}],"asset":{"version":"2.0","generator":"https://github.com/mikedh/trimesh"},"accessors":[{"componentType":5125,"type":"SCALAR","bufferView":0,"count":50688,"max":[8449],"min":[0]},{"componentType":5126,"type":"VEC3","byteOffset":0,"bufferView":1,"count":8450,"max":[-0.1599999964237213,0.3359900414943695,2.9200000762939453],"min":[-1.2106225490570068,-0.34735655784606934,0.10000000149011612]},{"componentType":5126,"type":"VEC2","byteOffset":0,"bufferView":3,"count":8450,"max":[1,1],"min":[0,0]},{"componentType":5126,"type":"VEC3","byteOffset":0,"bufferView":4,"count":8450,"max":[1.2100054025650024,0.3359900414943695,2.9200000762939453],"min":[0.1599999964237213,-0.34735655784606934,0.10000000149011612]},{"componentType":5125,"type":"SCALAR","bufferView":5,"count":1152,"max":[193],"min":[0]},{"componentType":5126,"type":"VEC3","byteOffset":0,"bufferView":6,"count":194,"max":[0.9200000166893005,0.41999998688697815,3.0299999713897705],"min":[-0.9200000166893005,-0.41999998688697815,2.809999942779541]},{"componentType":5125,"type":"SCALAR","bufferView":7,"count":36,"max":[7],"min":[0]},{"componentType":5126,"type":"VEC3","byteOffset":0,"bufferView":8,"count":8,"max":[-0.5874999761581421,-0.3449999988079071,3.0999999046325684],"min":[-0.6524999737739563,-0.4350000023841858,2.759999990463257]},{"componentType":5126,"type":"VEC3","byteOffset":0,"bufferView":9,"count":8,"max":[-0.17749999463558197,-0.3449999988079071,3.0999999046325684],"min":[-0.24250000715255737,-0.4350000023841858,2.759999990463257]},{"componentType":5126,"type":"VEC3","byteOffset":0,"bufferView":10,"count":8,"max":[0.24250000715255737,-0.3449999988079071,3.0999999046325684],"min":[0.17749999463558197,-0.4350000023841858,2.759999990463257]},{"componentType":5126,"type":"VEC3","byteOffset":0,"bufferView":11,"count":8,"max":[0.6524999737739563,-0.3449999988079071,3.0999999046325684],"min":[0.5874999761581421,-0.4350000023841858,2.759999990463257]},{"componentType":5126,"type":"VEC3","byteOffset":0,"bufferView":12,"count":8,"max":[-0.5874999761581421,0.4350000023841858,3.0999999046325684],"min":[-0.6524999737739563,0.3449999988079071,2.759999990463257]},{"componentType":5126,"type":"VEC3","byteOffset":0,"bufferView":13,"count":8,"max":[0.6524999737739563,0.4350000023841858,3.0999999046325684],"min":[0.5874999761581421,0.3449999988079071,2.759999990463257]},{"componentType":5125,"type":"SCALAR","bufferView":14,"count":576,"max":[97],"min":[0]},{"componentType":5126,"type":"VEC3","byteOffset":0,"bufferView":15,"count":98,"max":[0.08500000089406967,-0.4050000011920929,3.0350000858306885],"min":[-0.08500000089406967,-0.45500001311302185,2.865000009536743]},{"componentType":5126,"type":"VEC3","byteOffset":0,"bufferView":16,"count":8,"max":[0.12999999523162842,-0.39100000262260437,2.880000114440918],"min":[-0.12999999523162842,-0.4189999997615814,2.319999933242798]},{"componentType":5126,"type":"VEC3","byteOffset":0,"bufferView":17,"count":8,"max":[-0.3533589839935303,-0.39100000262260437,2.6631758213043213],"min":[-0.7266409993171692,-0.4189999997615814,2.4568240642547607]},{"componentType":5126,"type":"VEC3","byteOffset":0,"bufferView":18,"count":8,"max":[-0.29100000858306885,-0.32600000500679016,2.2249999046325684],"min":[-0.3089999854564667,-0.3440000116825104,0.574999988079071]},{"componentType":5126,"type":"VEC3","byteOffset":0,"bufferView":19,"count":8,"max":[0.7266409993171692,-0.39100000262260437,2.6631758213043213],"min":[0.3533589839935303,-0.4189999997615814,2.4568240642547607]},{"componentType":5126,"type":"VEC3","byteOffset":0,"bufferView":20,"count":8,"max":[0.3089999854564667,-0.32600000500679016,2.2249999046325684],"min":[0.29100000858306885,-0.3440000116825104,0.574999988079071]},{"componentType":5126,"type":"VEC3","byteOffset":0,"bufferView":21,"count":8,"max":[-0.25999999046325684,0.3199999928474426,0.12399999797344208],"min":[-1.2599999904632568,-0.3199999928474426,0.10599999874830246]},{"componentType":5126,"type":"VEC3","byteOffset":0,"bufferView":22,"count":8,"max":[1.2599999904632568,0.3199999928474426,0.12399999797344208],"min":[0.25999999046325684,-0.3199999928474426,0.10599999874830246]}],"meshes":[{"name":"geometry_0","extras":{"processed":true},"primitives":[{"attributes":{"POSITION":1,"TEXCOORD_0":2},"indices":0,"mode":4,"material":0}]},{"name":"geometry_1","extras":{"processed":true},"primitives":[{"attributes":{"POSITION":3,"TEXCOORD_0":2},"indices":0,"mode":4,"material":0}]},{"name":"geometry_2","extras":{"shape":"cylinder","height":0.22,"radius":1,"processed":true},"primitives":[{"attributes":{"POSITION":5},"indices":4,"mode":4,"material":0}]},{"name":"geometry_3","extras":{"shape":"box","extents":[0.065,0.09,0.34]},"primitives":[{"attributes":{"POSITION":7},"indices":6,"mode":4,"material":1}]},{"name":"geometry_4","extras":{"shape":"box","extents":[0.065,0.09,0.34]},"primitives":[{"attributes":{"POSITION":8},"indices":6,"mode":4,"material":1}]},{"name":"geometry_5","extras":{"shape":"box","extents":[0.065,0.09,0.34]},"primitives":[{"attributes":{"POSITION":9},"indices":6,"mode":4,"material":1}]},{"name":"geometry_6","extras":{"shape":"box","extents":[0.065,0.09,0.34]},"primitives":[{"attributes":{"POSITION":10},"indices":6,"mode":4,"material":1}]},{"name":"geometry_7","extras":{"shape":"box","extents":[0.065,0.09,0.34]},"primitives":[{"attributes":{"POSITION":11},"indices":6,"mode":4,"material":1}]},{"name":"geometry_8","extras":{"shape":"box","extents":[0.065,0.09,0.34]},"primitives":[{"attributes":{"POSITION":12},"indices":6,"mode":4,"material":1}]},{"name":"geometry_9","extras":{"shape":"cylinder","height":0.05,"radius":0.085,"processed":true},"primitives":[{"attributes":{"POSITION":14},"indices":13,"mode":4,"material":1}]},{"name":"geometry_10","extras":{"shape":"box","extents":[0.26,0.028,0.56]},"primitives":[{"attributes":{"POSITION":15},"indices":6,"mode":4,"material":1}]},{"name":"geometry_11","extras":{"shape":"box","extents":[0.36,0.028,0.1]},"primitives":[{"attributes":{"POSITION":16},"indices":6,"mode":4,"material":1}]},{"name":"geometry_12","extras":{"shape":"box","extents":[0.018,0.018,1.65]},"primitives":[{"attributes":{"POSITION":17},"indices":6,"mode":4,"material":1}]},{"name":"geometry_13","extras":{"shape":"box","extents":[0.36,0.028,0.1]},"primitives":[{"attributes":{"POSITION":18},"indices":6,"mode":4,"material":1}]},{"name":"geometry_14","extras":{"shape":"box","extents":[0.018,0.018,1.65]},"primitives":[{"attributes":{"POSITION":19},"indices":6,"mode":4,"material":1}]},{"name":"geometry_15","extras":{"shape":"box","extents":[1,0.64,0.018]},"primitives":[{"attributes":{"POSITION":20},"indices":6,"mode":4,"material":1}]},{"name":"geometry_16","extras":{"shape":"box","extents":[1,0.64,0.018]},"primitives":[{"attributes":{"POSITION":21},"indices":6,"mode":4,"material":1}]}],"images":[{"bufferView":2,"mimeType":"image/png"}],"textures":[{"source":0}],"materials":[{"pbrMetallicRoughness":{"baseColorTexture":{"index":0},"roughnessFactor":0.72,"metallicFactor":0},"name":"Seu Jeito alfaiataria tecido","doubleSided":true},{"pbrMetallicRoughness":{"baseColorFactor":[0.7215686274509804,0.3686274509803922,0.23529411764705882,1],"roughnessFactor":0.82,"metallicFactor":0},"name":"Seu Jeito alfaiataria costuras","doubleSided":true}],"nodes":[{"name":"world","children":[1,2,3,4,5,6,7,8,9,10,11,12,13,14,15,16,17]},{"name":"leg_L","mesh":0},{"name":"leg_R","mesh":1},{"name":"waistband","mesh":2},{"name":"loop_front_-0.62","mesh":3},{"name":"loop_front_-0.21","mesh":4},{"name":"loop_front_0.21","mesh":5},{"name":"loop_front_0.62","mesh":6},{"name":"loop_back_-0.62","mesh":7},{"name":"loop_back_0.62","mesh":8},{"name":"button","mesh":9},{"name":"fly","mesh":10},{"name":"front_pocket_-1","mesh":11},{"name":"crease_-1","mesh":12},{"name":"front_pocket_1","mesh":13},{"name":"crease_1","mesh":14},{"name":"hem_-1","mesh":15},{"name":"hem_1","mesh":16}],"buffers":[{"byteLength":534716,"uri":"data:application/octet-stream;base64,"}],"bufferViews":[{"buffer":0,"byteOffset":0,"byteLength":202752},{"buffer":0,"byteOffset":202752,"byteLength":101400},{"buffer":0,"byteOffset":304152,"byteLength":49756},{"buffer":0,"byteOffset":353908,"byteLength":67600},{"buffer":0,"byteOffset":421508,"byteLength":101400},{"buffer":0,"byteOffset":522908,"byteLength":4608},{"buffer":0,"byteOffset":527516,"byteLength":2328},{"buffer":0,"byteOffset":529844,"byteLength":144},{"buffer":0,"byteOffset":529988,"byteLength":96},{"buffer":0,"byteOffset":530084,"byteLength":96},{"buffer":0,"byteOffset":530180,"byteLength":96},{"buffer":0,"byteOffset":530276,"byteLength":96},{"buffer":0,"byteOffset":530372,"byteLength":96},{"buffer":0,"byteOffset":530468,"byteLength":96},{"buffer":0,"byteOffset":530564,"byteLength":2304},{"buffer":0,"byteOffset":532868,"byteLength":1176},{"buffer":0,"byteOffset":534044,"byteLength":96},{"buffer":0,"byteOffset":534140,"byteLength":96},{"buffer":0,"byteOffset":534236,"byteLength":96},{"buffer":0,"byteOffset":534332,"byteLength":96},{"buffer":0,"byteOffset":534428,"byteLength":96},{"buffer":0,"byteOffset":534524,"byteLength":96},{"buffer":0,"byteOffset":534620,"byteLength":96}]}